<svg xmlns="http://www.w3.org/2000/svg" xmlns:xlink="http://www.w3.org/1999/xlink" width="131.014" height="68.393" viewBox="0 0 131.014 68.393"><defs><linearGradient id="a" x1="-0.082" x2="1.284" y2="1" gradientUnits="objectBoundingBox"><stop offset="0" stop-color="#7ef5e0"/><stop offset="0.508" stop-color="#73e6f5"/><stop offset="1" stop-color="#6dabee"/></linearGradient></defs><path d="M16223.407,17220.646l.722-1.457a1.912,1.912,0,0,0,1.168.377,1.323,1.323,0,0,0,.964-.385,5.024,5.024,0,0,0,.856-1.506l.308-.7-3.944-9.449h2.106l2.771,7.162,2.612-7.162h1.925l-4.32,10.891a5.815,5.815,0,0,1-1.323,2.188,3.221,3.221,0,0,1-3.845.043Zm-63.072-10.229q-5.871-8.4-5.873-24.49,0-16.187,5.873-24.621t16.658-8.437q10.789,0,16.616,8.438t5.83,24.621q0,16.1-5.83,24.49t-16.616,8.395Q16166.206,17218.813,16160.335,17210.418Zm9.743-40.717q-2.218,5.268-2.219,16.227,0,10.787,2.219,16.049t6.915,5.264q4.7,0,6.872-5.264t2.176-16.049q0-10.872-2.176-16.184t-6.872-5.307Q16172.3,17164.438,16170.078,17169.7Zm-43.892,48.07v-49.852l-16.529,9.221v-12.094l19.487-11.049h9.83v63.773Zm108.452-1.32a2.994,2.994,0,0,1-1.35-1.689l1.388-.811a2.369,2.369,0,0,0,.917,1.143,2.685,2.685,0,0,0,1.475.385,2.155,2.155,0,0,0,1.233-.311,1,1,0,0,0,.458-.875.965.965,0,0,0-.276-.713,2.13,2.13,0,0,0-.7-.441c-.285-.1-.67-.229-1.163-.375a12.8,12.8,0,0,1-1.557-.52,2.776,2.776,0,0,1-1.008-.748,1.988,1.988,0,0,1-.424-1.324,2.514,2.514,0,0,1,.479-1.521,2.985,2.985,0,0,1,1.276-1,4.464,4.464,0,0,1,1.772-.342,4.112,4.112,0,0,1,2.188.559,2.694,2.694,0,0,1,1.216,1.514l-1.389.791a1.993,1.993,0,0,0-.8-.92,2.42,2.42,0,0,0-1.268-.32,2.081,2.081,0,0,0-1.137.275.9.9,0,0,0-.429.8.837.837,0,0,0,.26.641,2,2,0,0,0,.657.4q.4.149,1.116.352a12.416,12.416,0,0,1,1.591.541,2.755,2.755,0,0,1,1.064.809,2.169,2.169,0,0,1,.44,1.418,2.563,2.563,0,0,1-1,2.111,4.072,4.072,0,0,1-2.6.791A4.567,4.567,0,0,1,16234.639,17216.451Zm-18.367.273a3.014,3.014,0,0,1-1.25-.99,2.622,2.622,0,0,1-.472-1.57,2.561,2.561,0,0,1,1.138-2.193,4.872,4.872,0,0,1,2.9-.809,8.014,8.014,0,0,1,2.032.27v-.035a2.92,2.92,0,0,0-.5-1.881,1.868,1.868,0,0,0-1.514-.605,2.46,2.46,0,0,0-1.358.35,2.879,2.879,0,0,0-.93,1.021l-1.367-.793a3.5,3.5,0,0,1,1.458-1.586,4.438,4.438,0,0,1,2.3-.594,3.5,3.5,0,0,1,3.745,3.832v5.727h-1.6c-.021-.541-.052-.926-.086-1.15a3.055,3.055,0,0,1-2.772,1.35A4.305,4.305,0,0,1,16216.271,17216.725Zm.782-3.746a1.334,1.334,0,0,0-.593,1.15,1.28,1.28,0,0,0,.484,1.057,2.025,2.025,0,0,0,1.28.385,2.6,2.6,0,0,0,1.691-.566,1.909,1.909,0,0,0,.7-1.574v-.594a7.835,7.835,0,0,0-1.89-.271A2.914,2.914,0,0,0,16217.054,17212.979Zm-14.886,3.889v-13.178h3.854a7.688,7.688,0,0,1,3.473.773,5.791,5.791,0,0,1,2.431,2.271,7.554,7.554,0,0,1,0,7.084,5.856,5.856,0,0,1-2.422,2.266,7.554,7.554,0,0,1-3.481.783Zm1.929-1.691h1.67a5.05,5.05,0,0,0,3.685-1.289,5.606,5.606,0,0,0,0-7.234,5.067,5.067,0,0,0-3.685-1.289h-1.67Z" transform="translate(-16109.657 -17152.869)" fill="url(#a)"/></svg>